{
    "asset" : {
        "generator" : "Khronos glTF Blender I/O v3.4.50",
        "version" : "2.0"
    },
    "scene" : 0,
    "scenes" : [
        {
            "name" : "Scene",
            "nodes" : [
                0
            ]
        }
    ],
    "nodes" : [
        {
            "mesh" : 0,
            "name" : "Cube"
        }
    ],
    "materials" : [
        {
            "doubleSided" : true,
            "name" : "Material",
            "pbrMetallicRoughness" : {
                "baseColorFactor" : [
                    0.057801924645900726,
                    0.057801924645900726,
                    0.057801924645900726,
                    1
                ],
                "metallicFactor" : 0,
                "roughnessFactor" : 0.5
            }
        },
        {
            "doubleSided" : true,
            "name" : "Material.003",
            "pbrMetallicRoughness" : {
                "baseColorFactor" : [
                    0.8000000715255737,
                    0.0379704087972641,
                    0.027312101796269417,
                    1
                ],
                "metallicFactor" : 0,
                "roughnessFactor" : 0.5
            }
        },
        {
            "doubleSided" : true,
            "name" : "Material.001",
            "pbrMetallicRoughness" : {
                "baseColorFactor" : [
                    0.4969216287136078,
                    0.21283303201198578,
                    0.07562488317489624,
                    1
                ],
                "metallicFactor" : 0
            }
        }
    ],
    "meshes" : [
        {
            "name" : "Cube",
            "primitives" : [
                {
                    "attributes" : {
                        "POSITION" : 0,
                        "TEXCOORD_0" : 1,
                        "NORMAL" : 2
                    },
                    "indices" : 3,
                    "material" : 0
                },
                {
                    "attributes" : {
                        "POSITION" : 4,
                        "TEXCOORD_0" : 5,
                        "NORMAL" : 6
                    },
                    "indices" : 7,
                    "material" : 1
                },
                {
                    "attributes" : {
                        "POSITION" : 8,
                        "TEXCOORD_0" : 9,
                        "NORMAL" : 10
                    },
                    "indices" : 11,
                    "material" : 2
                }
            ]
        }
    ],
    "accessors" : [
        {
            "bufferView" : 0,
            "componentType" : 5126,
            "count" : 1073,
            "max" : [
                0.028659114614129066,
                -0.5015209317207336,
                0.13284754753112793
            ],
            "min" : [
                -0.028659118339419365,
                -0.6209691762924194,
                0.003498145379126072
            ],
            "type" : "VEC3"
        },
        {
            "bufferView" : 1,
            "componentType" : 5126,
            "count" : 1073,
            "type" : "VEC2"
        },
        {
            "bufferView" : 2,
            "componentType" : 5126,
            "count" : 1073,
            "type" : "VEC3"
        },
        {
            "bufferView" : 3,
            "componentType" : 5123,
            "count" : 1686,
            "type" : "SCALAR"
        },
        {
            "bufferView" : 4,
            "componentType" : 5126,
            "count" : 1356,
            "max" : [
                0.1627863645553589,
                0.6027075052261353,
                0.08750275522470474
            ],
            "min" : [
                -0.16278639435768127,
                -0.5674828290939331,
                0.009879500605165958
            ],
            "type" : "VEC3"
        },
        {
            "bufferView" : 5,
            "componentType" : 5126,
            "count" : 1356,
            "type" : "VEC2"
        },
        {
            "bufferView" : 6,
            "componentType" : 5126,
            "count" : 1356,
            "type" : "VEC3"
        },
        {
            "bufferView" : 7,
            "componentType" : 5123,
            "count" : 4722,
            "type" : "SCALAR"
        },
        {
            "bufferView" : 8,
            "componentType" : 5126,
            "count" : 1524,
            "max" : [
                0.14977309107780457,
                0.5741363763809204,
                0.048186324536800385
            ],
            "min" : [
                -0.14977312088012695,
                -0.5521669387817383,
                -0.00798760261386633
            ],
            "type" : "VEC3"
        },
        {
            "bufferView" : 9,
            "componentType" : 5126,
            "count" : 1524,
            "type" : "VEC2"
        },
        {
            "bufferView" : 10,
            "componentType" : 5126,
            "count" : 1524,
            "type" : "VEC3"
        },
        {
            "bufferView" : 11,
            "componentType" : 5123,
            "count" : 6324,
            "type" : "SCALAR"
        }
    ],
    "bufferViews" : [
        {
            "buffer" : 0,
            "byteLength" : 12876,
            "byteOffset" : 0,
            "target" : 34962
        },
        {
            "buffer" : 0,
            "byteLength" : 8584,
            "byteOffset" : 12876,
            "target" : 34962
        },
        {
            "buffer" : 0,
            "byteLength" : 12876,
            "byteOffset" : 21460,
            "target" : 34962
        },
        {
            "buffer" : 0,
            "byteLength" : 3372,
            "byteOffset" : 34336,
            "target" : 34963
        },
        {
            "buffer" : 0,
            "byteLength" : 16272,
            "byteOffset" : 37708,
            "target" : 34962
        },
        {
            "buffer" : 0,
            "byteLength" : 10848,
            "byteOffset" : 53980,
            "target" : 34962
        },
        {
            "buffer" : 0,
            "byteLength" : 16272,
            "byteOffset" : 64828,
            "target" : 34962
        },
        {
            "buffer" : 0,
            "byteLength" : 9444,
            "byteOffset" : 81100,
            "target" : 34963
        },
        {
            "buffer" : 0,
            "byteLength" : 18288,
            "byteOffset" : 90544,
            "target" : 34962
        },
        {
            "buffer" : 0,
            "byteLength" : 12192,
            "byteOffset" : 108832,
            "target" : 34962
        },
        {
            "buffer" : 0,
            "byteLength" : 18288,
            "byteOffset" : 121024,
            "target" : 34962
        },
        {
            "buffer" : 0,
            "byteLength" : 12648,
            "byteOffset" : 139312,
            "target" : 34963
        }
    ],
    "buffers" : [
        {
            "byteLength" : 151960,
            "uri" : "data:application/octet-stream;base64,"
        }
    ]
}
